<?xml version="1.0" encoding="utf-8"?>
<!-- Generator: Adobe Illustrator 18.0.0, SVG Export Plug-In . SVG Version: 6.00 Build 0)  -->
<!DOCTYPE svg PUBLIC "-//W3C//DTD SVG 1.1//EN" "http://www.w3.org/Graphics/SVG/1.1/DTD/svg11.dtd">
<svg version="1.1" id="Layer_1" xmlns="http://www.w3.org/2000/svg" xmlns:xlink="http://www.w3.org/1999/xlink" x="0px" y="0px"
	 viewBox="0 0 375.6 458.4" width="286.246699151" height="349.349006632" enable-background="new 0 0 375.6 458.4" xml:space="preserve">
<path fill-rule="evenodd" clip-rule="evenodd" fill="#FFFFFF" d="M313.4,126L313.4,126c0-69.6-56.3-126-125.8-126
	C118,0,62.1,56.4,62.1,126c0,69.2,55.9,125.7,125.5,125.7C257.1,251.7,313.4,195.3,313.4,126z"/>
<path fill-rule="evenodd" clip-rule="evenodd" fill="#007549" d="M175.1,105.8L175.1,105.8v7.4c0,1.2,0.8,2.3,1.9,2.3h10.5H198
	c1.2,0,1.9-1.2,1.9-2.3v-7.4c0-1.2-0.8-1.9-1.9-1.9c-3.5,0-7-0.4-10.5-0.4c-3.5,0-7,0.4-10.5,0.4
	C175.9,103.9,175.1,104.6,175.1,105.8z"/>
<path fill-rule="evenodd" clip-rule="evenodd" fill="#007549" d="M193.8,187.1L193.8,187.1c0,3.5-2.7,6.2-6.2,6.2
	c-3.5,0-6.2-2.7-6.2-6.2c0-3.5,2.7-6.6,6.2-6.6C191,180.5,193.8,183.6,193.8,187.1z"/>
<path fill-rule="evenodd" clip-rule="evenodd" fill="#007549" d="M223.3,199.9L223.3,199.9c0-1.2-1.2-1.9-2.3-1.9
	c-10.5,3.5-21.8,5.1-33.4,5.1c-11.7,0-22.9-1.6-33.4-5.1c-1.2,0-2.3,0.8-2.3,1.9c0,0.8,0.4,1.6,1.2,1.9c10.9,3.1,22.5,5.1,34.6,5.1
	s23.7-1.9,34.6-5.1C222.9,201.5,223.3,200.7,223.3,199.9z"/>
<path fill-rule="evenodd" clip-rule="evenodd" fill="#007549" d="M163.5,49.4L163.5,49.4c-3.1,0.4-5.8,0.8-8.9,1.6
	c-1.6,0-2.7,1.6-2.7,3.1v24.5c0,1.9,1.6,3.5,3.9,3.1c2.7,0,5.8-0.4,8.5-0.8c1.9,0,3.1-1.6,3.1-3.5V52.5
	C167.4,50.6,165.8,49,163.5,49.4z"/>
<path fill-rule="evenodd" clip-rule="evenodd" fill="#007549" d="M202.7,51.4L202.7,51.4c0-1.6-1.2-3.1-3.1-3.1
	c-3.9-0.4-7.8-0.8-12-0.8c-3.9,0-8.2,0.4-12,0.8c-1.9,0-3.1,1.6-3.1,3.1V77c0,1.9,1.6,3.5,3.5,3.1h11.7h11.7
	c1.9,0.4,3.5-1.2,3.5-3.1V51.4z"/>
<path fill-rule="evenodd" clip-rule="evenodd" fill="#007549" d="M207.7,52.5L207.7,52.5v24.9c0,1.9,1.2,3.5,3.1,3.5
	c3.1,0.4,5.8,0.8,8.9,0.8c1.9,0.4,3.5-1.2,3.5-3.1V54.1c0-1.6-0.8-3.1-2.7-3.1c-2.7-0.8-5.8-1.2-8.9-1.6
	C209.3,49,207.7,50.6,207.7,52.5z"/>
<path fill-rule="evenodd" clip-rule="evenodd" fill="#007549" d="M168.9,127.2L168.9,127.2h-13.6c-1.9,0-3.5,1.6-3.5,3.5v24.9
	c0,1.9,1.2,3.1,3.1,3.5c4.3,0.4,9.3,0.8,14,0.8c1.9,0,3.5-1.6,3.5-3.5v-25.7C172.4,128.8,170.8,127.2,168.9,127.2z"/>
<path fill-rule="evenodd" clip-rule="evenodd" fill="#007549" d="M202.7,130.7L202.7,130.7v25.7c0,1.9,1.6,3.5,3.5,3.5
	c5-0.4,9.7-0.4,14-0.8c1.9-0.4,3.1-1.6,3.1-3.5v-24.9c0-1.9-1.2-3.5-3.1-3.5h-14C204.3,127.2,202.7,128.8,202.7,130.7z"/>
<path fill-rule="evenodd" clip-rule="evenodd" fill="#007549" d="M194.5,127.2L194.5,127.2h-14c-1.9,0-3.5,1.6-3.5,3.5v26.1
	c0,1.9,1.6,3.5,3.5,3.5h7h7c1.9,0,3.5-1.6,3.5-3.5v-26.1C198,128.8,196.5,127.2,194.5,127.2z"/>
<path fill-rule="evenodd" clip-rule="evenodd" fill="#007549" d="M177.1,3.1L177.1,3.1c-0.4-1.6-2.3-2.3-3.9-2.3
	c-22.9,2.7-43.9,11.3-61.4,24.5C81.5,48.2,62.1,84.8,62.1,126c0,51,30.3,95.3,74.2,114.8c5.4,2.3,12,0.8,15.5-3.9l12.4-17.1
	c-5.8-0.8-11.3-1.9-16.7-3.5c-2.3-0.8-3.5-2.7-3.5-4.7V42.8c0-1.9,1.2-3.9,3.5-4.3c6.6-1.9,13.2-3.5,20.2-4.3l0.8-7
	c0-1.2,1.2-1.9,2.3-1.9h13.6L177.1,3.1z"/>
<path fill-rule="evenodd" clip-rule="evenodd" fill="#007549" d="M263.3,25.3L263.3,25.3C242.3,9.3,215.9,0,187.5,0h-4.3
	c-1.6,0-2.3,1.6-1.9,3.1l7.4,22.2h15.5c1.2,0,2.3,0.8,2.3,1.9l0.8,7c7,0.8,14,2.3,20.6,4.3c1.9,0.4,3.1,2.3,3.1,4.3v168.8
	c0,2.3-1.2,3.9-3.1,4.7c-5.4,1.6-11.3,2.7-17.1,3.5l12.4,17.1c3.5,4.7,10.1,6.2,15.5,3.9c43.9-19.5,74.6-63.8,74.6-114.8
	C313.4,84.8,293.6,48.2,263.3,25.3z"/>
<path fill-rule="evenodd" clip-rule="evenodd" fill="#007549" d="M175.8,454.6v3.5h3.8v-3.5H175.8z M262.9,449.3v0.9h112.7v-0.9
	H262.9z M0,449.3v0.9h112.7v-0.9H0z M246.7,443.8v7.6h-6L246.7,443.8z M226.3,442.1c0.6,0,1.4,0.3,2,0.6c0.6,0.3,0.9,0.9,1.5,1.5
	c0.3,0.6,0.6,1.4,0.8,2c0.3,0.9,0.3,1.7,0.3,2.6c0,1.2,0,2-0.3,2.6c-0.3,0.9-0.6,1.7-0.8,2.3c-0.6,0.6-0.9,0.9-1.5,1.2
	c-0.6,0.6-1.2,0.6-2,0.6c-0.6,0-1.5,0-2-0.6c-0.6-0.3-0.8-0.6-1.4-1.5c-0.3-0.6-0.6-1.2-0.9-2c-0.3-0.9-0.3-1.7-0.3-2.6
	s0-1.7,0.3-2.6c0.3-0.9,0.6-1.4,0.9-2c0.6-0.6,0.8-1.2,1.4-1.5C224.8,442.4,225.4,442.1,226.3,442.1z M207.8,442.1
	c1.5,0,2.3,0.3,2.9,0.9c0.9,0.9,1.2,1.5,1.2,2.6c0,0.3,0,0.9-0.3,1.2c-0.3,0.6-0.3,0.9-0.9,1.2c-0.3,0.3-0.6,0.6-1.1,0.6
	c-0.3,0.3-0.8,0.3-1.4,0.3c-1.2,0-2-0.3-2.9-0.9c-0.6-0.6-0.9-1.5-0.9-2.3c0-0.6,0-0.9,0.3-1.5c0-0.3,0.3-0.6,0.6-1.2
	c0.3-0.3,0.8-0.6,1.1-0.6C207,442.1,207.2,442.1,207.8,442.1L207.8,442.1z M247,439.5l-10.4,12.2l0.6,2.3h9.5v4.1h2.9V454h2.6v-2.6
	h-2.6v-11.9H247L247,439.5z M194.9,439.5l-5.2,1.5l0.8,2.9l3.2-1.2v15.4h3.1v-18.6H194.9L194.9,439.5z M158.3,439.5v3.2h5.8v15.4
	h3.1v-15.4h6.1v-3.2H158.3z M125.1,439.5v18.6h13.8v-2.9h-10.7v-4.9h9.2v-2.9h-9.2v-4.7h10.4v-3.2H125.1z M226.3,439.2
	c-1.2,0-2.3,0.3-3.2,0.9c-1.2,0.6-2,1.2-2.6,2c-0.9,0.9-1.2,1.7-1.7,2.9c-0.3,1.2-0.6,2.6-0.6,3.8c0,1.5,0.3,2.6,0.6,3.8
	c0.6,1.2,0.8,2.3,1.7,3.2c0.6,0.9,1.4,1.5,2.6,2c0.9,0.3,2,0.6,3.2,0.6c1.2,0,2.3-0.3,3.1-0.6c1.2-0.6,2-1.2,2.6-2
	c0.8-0.9,1.4-2,1.7-3.2c0.3-1.2,0.6-2.3,0.6-3.8c0-1.2-0.3-2.6-0.6-3.8c-0.3-1.2-0.9-2-1.7-2.9c-0.6-0.9-1.5-1.5-2.3-2
	C228.6,439.5,227.5,439.2,226.3,439.2z M207.8,439.2c-0.8,0-1.7,0.3-2.6,0.6c-0.9,0.3-1.7,0.9-2.3,1.5c-0.6,0.6-1.2,1.2-1.5,2
	c-0.3,0.6-0.3,1.5-0.3,2.3v0.3c0,0.9,0,1.5,0.3,2.3c0.3,0.6,0.9,1.5,1.5,1.7c0.6,0.6,1.1,0.9,2,1.2c0.9,0.3,1.7,0.6,2.6,0.6
	c1.2,0,2-0.3,2.6-0.6c0.9-0.3,1.5-0.9,1.7-1.5c0,0.9,0,1.7-0.3,2.3c-0.3,0.9-0.6,1.5-0.9,2c-0.3,0.3-0.8,0.9-1.4,1.2
	c-0.6,0.3-1.2,0.3-1.7,0.3c-0.9,0-1.5,0-2.3-0.3c-0.6-0.3-1.2-0.9-2-1.5l-1.7,2.6c0.9,0.6,1.7,1.2,2.6,1.5c0.8,0.6,2,0.6,3.2,0.6
	c1.5,0,2.6-0.3,3.5-0.6c0.9-0.6,1.7-1.2,2.6-2c0.6-0.9,1.1-2,1.4-3.2c0.3-1.5,0.6-2.6,0.6-4.1v-0.3c0-1.7-0.3-3.2-0.6-4.4
	c-0.6-0.9-1.1-2-1.7-2.6c-0.6-0.6-1.4-1.2-2-1.5C210.1,439.5,209,439.2,207.8,439.2L207.8,439.2z M148.5,439.2
	c-0.9,0-1.7,0.3-2.6,0.6c-0.6,0.3-1.4,0.6-2,1.2c-0.6,0.3-0.9,0.9-1.2,1.5c-0.3,0.9-0.6,1.5-0.6,2.3c0,0.9,0.3,1.7,0.6,2.3
	c0.3,0.6,0.6,0.9,1.2,1.5c0.6,0.3,1.2,0.9,1.7,1.2c0.9,0.3,1.7,0.3,2.9,0.6c0.9,0.3,1.4,0.6,2,0.6c0.6,0.3,0.9,0.6,1.2,0.6
	c0.3,0.3,0.6,0.6,0.6,0.9c0.3,0.3,0.3,0.6,0.3,0.9c0,0.9-0.3,1.5-0.9,1.7c-0.6,0.3-1.4,0.6-2.3,0.6c-1.2,0-2.3-0.3-3.2-0.6
	c-0.9-0.3-1.7-0.9-2.6-1.7l-2,2.3c1.2,0.9,2.3,1.7,3.5,2.3c1.4,0.3,2.9,0.6,4,0.6c1.2,0,2,0,2.9-0.3c0.6-0.3,1.4-0.6,2-1.2
	c0.6-0.6,0.9-1.2,1.1-1.7c0.6-0.6,0.6-1.5,0.6-2.3c0-0.9,0-1.5-0.3-2c-0.3-0.6-0.6-1.2-1.2-1.5c-0.6-0.6-1.2-0.9-1.7-1.2
	c-0.9-0.3-1.7-0.6-2.6-0.9c-0.9-0.3-1.7-0.3-2.3-0.6c-0.6-0.3-0.9-0.3-1.4-0.6c-0.3-0.3-0.6-0.6-0.6-0.9c0-0.3-0.3-0.6-0.3-0.9
	c0-0.6,0.3-1.2,0.9-1.5c0.6-0.6,1.4-0.9,2.3-0.9c0.9,0,1.7,0.3,2.3,0.6c0.9,0.3,1.7,0.9,2.6,1.5l1.7-2.3c-0.9-0.9-2-1.5-2.9-1.7
	C151,439.5,149.9,439.2,148.5,439.2z M300.1,391.2l4.3,11h-9L300.1,391.2z M169.2,391.2l4.6,11h-9L169.2,391.2z M126.5,389.2h7.5
	c3.7,0,6.1,1.7,6.1,4.9c0,2.9-2.3,4.9-5.8,4.9h-7.8V389.2z M315.9,382.5c-0.6,0-1.2,0.6-0.6,1.2l12.1,19.5v12.8
	c0,0.6,0.6,0.9,0.9,0.9h6c0.3,0,0.6-0.3,0.6-0.9v-12.8l12.4-19.5c0.3-0.6,0-1.2-0.6-1.2h-6.6c-0.3,0-0.6,0-0.9,0.3l-7.8,13.4
	l-8.1-13.4c0-0.3-0.3-0.3-0.6-0.3H315.9L315.9,382.5z M193.4,382.5c-0.3,0-0.8,0.3-0.8,0.6v32.9c0,0.6,0.6,0.9,0.8,0.9h5.8
	c0.6,0,0.9-0.3,0.9-0.9v-21.5l9.5,14.5l9.8-14.5v21.5c0,0.6,0.3,0.9,0.6,0.9h6c0.3,0,0.6-0.3,0.6-0.9v-32.9c0-0.3-0.3-0.6-0.6-0.6
	h-6.9c-0.3,0-0.6,0-0.6,0.3l-9,14.2l-8.6-14.2c0-0.3-0.3-0.3-0.6-0.3H193.4L193.4,382.5z M119.9,382.5c-0.3,0-0.9,0.3-0.9,0.6v32.9
	c0,0.6,0.6,0.9,0.9,0.9h6.1c0.3,0,0.6-0.3,0.6-0.9v-10.2h6.1l6.9,10.8c0.3,0,0.6,0.3,0.6,0.3h7.2c0.6,0,0.9-0.9,0.6-1.2l-7.5-11.1
	c4.3-1.7,7.2-5.2,7.2-10.8c0-3.2-1.2-6.1-2.9-7.8c-2.3-2.3-5.8-3.5-10.1-3.5H119.9L119.9,382.5z M85.9,382.5c-0.3,0-0.6,0.3-0.6,0.6
	v5.5c0,0.6,0.3,0.9,0.6,0.9h9.8v26.5c0,0.6,0.3,0.9,0.6,0.9h6.1c0.6,0,0.9-0.3,0.9-0.9v-26.5h9.5c0.3,0,0.9-0.3,0.9-0.9v-5.5
	c0-0.3-0.6-0.6-0.9-0.6H85.9z M60,382.5c-0.3,0-0.6,0-0.6,0.3l-11.5,16.3v0.9l11.5,16.6c0,0,0.3,0.3,0.6,0.3h6.6
	c0.6,0,1.2-0.9,0.6-1.2l-11-16l11-16c0.6-0.6,0-1.2-0.6-1.2L60,382.5L60,382.5z M38.3,382.5c-0.3,0-0.6,0.3-0.6,0.6v32.9
	c0,0.6,0.3,0.9,0.6,0.9h6.1c0.6,0,0.9-0.3,0.9-0.9v-32.9c0-0.3-0.3-0.6-0.9-0.6H38.3z M1.4,382.5c-0.3,0-0.6,0.3-0.6,0.6v32.9
	c0,0.6,0.3,0.9,0.6,0.9h6.1c0.3,0,0.9-0.3,0.9-0.9v-13.1h13.5v13.1c0,0.6,0.6,0.9,0.9,0.9h6.1c0.3,0,0.6-0.3,0.6-0.9v-32.9
	c0-0.3-0.3-0.6-0.6-0.6h-6.1c-0.3,0-0.9,0.3-0.9,0.6v12.8H8.4v-12.8c0-0.3-0.6-0.6-0.9-0.6H1.4z M297.2,382.2
	c-0.3,0-0.6,0.3-0.8,0.3l-13.8,33.1c-0.3,0.6,0.3,1.2,0.6,1.2h6c0.3,0,0.6-0.3,0.9-0.6l2.9-7.3h14.4l2.9,7.3c0,0.3,0.3,0.6,0.6,0.6
	h6.3c0.6,0,0.9-0.6,0.6-1.2l-13.8-33.1c-0.3,0-0.6-0.3-0.8-0.3H297.2L297.2,382.2z M255.4,382.2c-0.3,0-0.6,0.3-0.6,0.6l-7.5,23
	l-6.9-22.7c0-0.6-0.3-0.6-0.6-0.6h-6.6c-0.6,0-0.9,0.3-0.6,0.9l11,33.1c0.3,0.3,0.6,0.6,0.8,0.6h5.5c0.3,0,0.6-0.3,0.6-0.6l7.5-22.1
	l7.5,22.1c0,0.3,0.3,0.6,0.9,0.6h5.2c0.6,0,0.8-0.3,0.8-0.6l11-33.1c0.3-0.6,0-0.9-0.6-0.9h-6.3c-0.3,0-0.6,0-0.6,0.6l-6.9,22.7
	l-7.5-23c0-0.3-0.3-0.6-0.6-0.6H255.4L255.4,382.2z M166.3,382.2c-0.3,0-0.6,0.3-0.6,0.3l-13.8,33.1c-0.3,0.6,0,1.2,0.6,1.2h6
	c0.3,0,0.6-0.3,0.6-0.6l2.9-7.3h14.4l2.9,7.3c0.3,0.3,0.6,0.6,0.8,0.6h6.1c0.6,0,0.8-0.6,0.8-1.2l-14.1-33.1c0,0-0.3-0.3-0.6-0.3
	H166.3L166.3,382.2z M362.1,381.9c-6.9,0-11.8,4.1-11.8,10.5c0,6.7,4.3,8.7,11.3,10.5c5.5,1.5,6.6,2.3,6.6,4.4c0,2-1.7,3.2-4.9,3.2
	c-3.5,0-6.6-1.2-9.5-3.5c-0.3-0.3-0.8-0.3-0.8,0l-3.5,4.4c-0.3,0.3-0.3,0.6,0,0.9c4,3.5,8.9,4.9,13.8,4.9c7.2,0,12.4-3.8,12.4-10.5
	v-0.3c0-5.8-3.7-8.4-10.6-10.2c-6.1-1.5-7.5-2.3-7.5-4.4v-0.3c0-1.5,1.7-2.9,4.6-2.9c2.6,0,5.2,1.2,8.1,2.9c0.3,0.3,0.8,0.3,1.2,0
	l2.9-4.7c0.3-0.3,0.3-0.9,0-0.9C370.7,383.4,366.7,381.9,362.1,381.9L362.1,381.9z M17,348.2h43v7.3H17V348.2z M243.9,340.6h17v4.7
	h-17V340.6z M215.9,340.6h17.3v4.7h-17.3V340.6z M111.8,334.5c-0.6,0-1.2,0.3-1.2,0.6l-9.5,25.9c0,0.6,0.3,1.2,0.9,1.2h10.4
	c0.6,0,0.9-0.3,1.2-0.9l9.5-25.9c0-0.3-0.3-0.9-0.6-0.9H111.8L111.8,334.5z M17,334.5h43v7.3H17V334.5z M136.3,332.5h22.5v8.1h-22.5
	V332.5z M243.9,330.7h17v4.4h-17V330.7z M215.9,330.7h17.3v4.4h-17.3V330.7z M343.9,327h17.6v6.4h-17.6V327z M315.3,327h17.9v6.4
	h-17.9V327z M234.1,320.3c-0.3,0-0.8,0.6-0.8,1.5v3.2h-22.5c-1.4,0-2.9,0.6-3.7,1.7c-0.9,0.9-1.2,2.3-1.2,3.8v14.8
	c0,1.7,0.3,3.2,1.2,4.1c0.8,0.9,2,1.5,3.7,1.5h22.5v4.4c0,2.3,0.6,4.1,1.7,5.2c1.2,1.2,2.6,1.7,4.9,1.7h31.7c0.6,0,1.4-0.6,2-1.2
	l1.7-3.5c0.3-0.3,0-0.9-0.6-0.9h-30.8v-5.8h22.2c1.5,0,2.9-0.6,3.8-1.5c0.8-0.9,1.4-2.3,1.4-4.1v-14.8c0-1.7-0.6-3.2-1.4-4.1
	c-0.9-0.9-2.3-1.5-3.8-1.5h-22.2v-3.5c0-0.3-0.3-1.2-1.1-1.2H234.1z M141,318.2h12.4l5.8,7.6h-23.3L141,318.2z M247.3,316.2
	c-0.6,0-1.1,0.3-1.1,0.9v3.5c0,0.3,0.6,0.9,1.1,0.9h13.6c0.3,0,0.9-0.6,0.9-1.2v-3.2c0-0.6-0.6-0.9-1.2-0.9H247.3L247.3,316.2z
	 M216.2,316.2c-0.3,0-0.9,0.3-0.9,0.9v3.5c0,0.3,0.6,0.9,1.1,0.9h13.3c0.6,0,1.1-0.6,1.1-1.2v-3.2c0-0.6-0.6-0.9-1.1-0.9H216.2
	L216.2,316.2z M343.9,314.2h17.6v6.4h-17.6V314.2z M315.3,314.2h17.9v6.4h-17.9V314.2z M16.7,313.6c-0.3,0-0.6,0.6-1.2,0.9
	L0.9,330.7c-0.3,0.3,0,0.9,0.6,0.9h4.9c-0.3,0.6-0.3,1.5-0.3,2.3v22.4c0,1.5,0.6,2.9,1.4,3.8c1.2,1.2,2.6,2,4.6,2h52.5
	c2,0,3.7-0.6,4.9-1.7c0.9-0.9,1.4-2.3,1.4-4.1v-23.3c0-0.6,0-1.2-0.3-1.5h6.1c0.3,0,0.9-0.6,0.6-0.9l-15-16.3
	c-0.3-0.3-0.9-0.9-1.4-0.9H50.4c-0.6,0-0.9,1.2-0.6,1.5l11.5,12.8h-45L28.3,315c0.3-0.3-0.3-1.5-0.6-1.5H16.7L16.7,313.6z
	 M102,311.3c-0.6,0-0.9,0.9-0.9,1.2l7.2,16.3c0.3,0.3,0.6,0.3,1.2,0.3h10.4c0.6,0,0.9-0.3,0.6-0.9l-7.5-16.3c0-0.3-0.6-0.6-1.2-0.6
	H102z M247.3,308.1c-0.6,0-1.1,0.3-1.1,0.9v3.5c0,0.6,0.6,0.9,1.1,0.9h13.6c0.3,0,0.9-0.3,0.9-1.2v-3.2c0-0.3-0.6-0.9-1.2-0.9H247.3
	L247.3,308.1z M216.2,308.1c-0.3,0-0.9,0.3-0.9,0.9v3.5c0,0.6,0.6,0.9,1.1,0.9h13.3c0.6,0,1.1-0.3,1.1-1.2v-3.2
	c0-0.3-0.6-0.9-1.1-0.9H216.2L216.2,308.1z M142.1,303.7h11v7.8h-11V303.7z M204.9,289.5c-0.6,0-0.8,0.3-0.8,0.9v3.8
	c0,0.3,0.6,0.9,0.8,0.9h28.3v4.4h-23.9c-2,0-3.8,0.6-4.9,1.7c-1.2,1.2-1.7,2.6-1.7,4.4v11c0,0.6,0.6,1.2,1.2,1.2h8.4
	c0.6,0,0.8-0.6,0.8-1.2v-11.6h20.2v12.5c0,0.6,0.3,1.2,0.8,1.2h8.9c0.3,0,0.8-0.6,0.8-1.2v-12.5h19.9v11.6c0,0.6,0.6,1.2,1.1,1.2
	h8.4c0.6,0,0.8-0.6,0.8-1.2v-11c0-2-0.3-3.5-1.2-4.4c-1.2-1.2-2.9-1.7-5.2-1.7h-23.9V295h27.4c0.6,0,1.1-0.6,1.1-1.2v-3.5
	c0-0.6-0.6-0.9-1.1-0.9H204.9L204.9,289.5z M132.3,288.6c-0.3,0-0.9,0.3-0.9,0.6v7.9h-8.4c-0.6,0-1.1,0.3-1.1,0.9v4.9
	c0,0.3,0.6,0.9,1.1,0.9h8.4v7.8h-11c-0.3,0-0.9,0.3-0.9,0.9v4.9c0,0.3,0.6,0.9,0.9,0.9h8.9l-10.1,13.1c-0.3,0.6,0,1.2,0.6,1.2h5.8
	v23.8c0,1.7,0.6,3.2,1.7,4.1c0.9,1.2,2,1.7,3.5,1.7h42.1c0.3,0,0.6,0,0.9-0.3l2.6-5.5c0-0.3-0.3-0.9-0.6-0.9h-39.5V347H164
	c1.7,0,3.1-0.6,4-1.5c1.2-1.2,1.4-2.6,1.4-4.1v-9.6h5.8c0.6,0,0.9-0.6,0.6-0.9l-9.5-12.8h8.3c0.6,0,1.5-0.3,1.5-0.9v-4.9
	c0-0.3-0.9-0.9-1.5-0.9h-11v-7.8h8.4c0.3,0,1.1-0.6,1.1-1.2v-4.7c0-0.6-0.6-0.9-1.1-0.9h-8.4v-7.6c0-0.6-0.3-0.9-0.8-0.9h-8.9
	c-0.3,0-0.9,0.3-0.9,0.9v7.6h-11v-7.9c0-0.3-0.3-0.6-0.9-0.6H132.3z M102.3,288.6c-0.3,0-0.9,0.6-0.9,0.9l7.2,17.2
	c0.3,0.6,0.9,0.6,1.4,0.6h10.4c0.6,0,0.9-0.6,0.6-1.2l-7.8-17.1c0-0.3-0.9-0.3-1.2-0.3L102.3,288.6L102.3,288.6z M62.6,288.6
	c-0.6,0-1.1,0.6-1.1,0.9l-0.3,1.7H5.5c-0.6,0-1.2,0.6-1.2,0.9v4.9c0,0.3,0.6,0.9,1.2,0.9h28.2v7h-30c-0.3,0-0.9,0.3-0.9,0.6v4.9
	c0,0.6,0.6,0.9,1.2,0.9h29.7V324c0,0.6,0.3,1.2,0.9,1.2h8.9c0.6,0,0.9-0.6,0.9-1.2v-12.8h29.7c0.3,0,0.9-0.3,0.9-1.2v-4.4
	c0-0.6-0.6-0.9-1.1-0.9H44.4v-7h22.2c1.2,0,2.9-0.3,4-0.9c1.2-0.9,2-1.7,2.6-3.2l0.9-4.4c0.3-0.6-0.3-0.9-0.6-0.9H62.6z
	 M334.1,288.3c-0.6,0-0.9,0.6-0.9,1.2v5.5h-30c-0.3,0-0.8,0.3-0.8,0.6v4.9c0,0.6,0.6,0.9,1.1,0.9h29.7v6.1h-22.5
	c-1.7,0-3.5,0.9-4.3,2c-1.2,1.2-1.7,2.6-1.7,4.1v20.6c0,1.5,0.6,2.9,1.4,3.8c1.2,1.5,2.9,2,4.6,2h22.5v6.1h-31.1
	c-0.6,0-1.1,0.3-1.1,0.9v4.7c0,0.6,0.6,0.9,1.1,0.9h31.1v8.1c0,0.6,0.3,1.5,0.9,1.5h9c0.3,0,0.8-0.9,0.8-1.5v-8.1h30.5
	c0.6,0,1.2-0.3,1.2-1.2V347c0-0.6-0.6-0.9-1.2-0.9h-30.5V340h22.2c2,0,3.5-0.6,4.6-1.7c0.8-0.9,1.4-2,1.4-4.1v-21.5
	c0-1.5-0.8-2.9-2-3.8c-1.2-0.9-2.6-1.5-4-1.5h-22.2v-6.1h29.4c0.6,0,1.1-0.3,1.1-1.2v-4.4c0-0.6-0.6-0.9-1.1-0.9h-29.4v-5.5
	c0-0.6-0.6-1.2-1.2-1.2H334.1L334.1,288.3z"/>
</svg>
